{"title":"Crouching.Tiger.Hidden.Dragon.2000.BluRay.1080p.x265.10bit-z97","magnet":"magnet:?xt=urn:btih:c86c2e1acd052f3eb570bd509e4f8ab8c270544a&dn=Crouching.Tiger.Hidden.Dragon.2000.BluRay.1080p.x265.10bit-z97&tr=udp%3A%2F%2Ftracker.leechers-paradise.org%3A6969&tr=udp%3A%2F%2Fzer0day.ch%3A1337&tr=udp%3A%2F%2Fopen.demonii.com%3A1337&tr=udp%3A%2F%2Ftracker.coppersurfer.tk%3A6969&tr=udp%3A%2F%2Fexodus.desync.com%3A6969","uploader":"48848448","categoryP":"video","categoryS":"hd___movies","size":"2939669876","seeders":"30","leechers":"18","description":"Video\r\nID                             : 1\r\nFormat                         : HEVC\r\nFormat profile                 : Main <a class=\"__cf_email__\" href=\"/cdn-cgi/l/email-protection\" data-cfemail=\"e5d4d5a5a9d1\">[email&#xA0;protected]</a><script data-cfhash=\"f9e31\" type=\"text/javascript\">/* <![CDATA[ */!function(t,e,r,n,c,a,p){try{t=document.currentScript||function(){for(t=document.getElementsByTagName('script'),e=t.length;e--;)if(t[e].getAttribute('data-cfhash'))return t[e]}();if(t&&(c=t.previousSibling)){p=t.parentNode;if(a=c.getAttribute('data-cfemail')){for(e='',r='0x'+a.substr(0,2)|0,n=2;a.length-n;n+=2)e+='%'+('0'+('0x'+a.substr(n,2)^r).toString(16)).slice(-2);p.replaceChild(document.createTextNode(decodeURIComponent(e)),c)}p.removeChild(t)}}catch(u){}}()/* ]]> */</script>@Main\r\nDuration                       : 2 h 0 min\r\nBit rate                       : 2 799 kb/s\r\nWidth                          : 1 920 pixels\r\nHeight                         : 804 pixels\r\nDisplay aspect ratio           : 2.40:1\r\nFrame rate mode                : Constant\r\nFrame rate                     : 23.976 (24000/1001) FPS\r\nColor space                    : YUV\r\nChroma subsampling             : 4:2:0\r\nBit depth                      : 10 bits\r\nStream size                    : 2.35 GiB (86%)\r\nWriting library                : x265 2.5+9 [64 bit] 10bit\r\nLanguage                       : Chinese\r\nDefault                        : Yes\r\n\r\nAudio\r\nID                             : 2\r\nFormat                         : AC-3\r\nDuration                       : 2 h 0 min\r\nBit rate mode                  : Constant\r\nBit rate                       : 448 kb/s\r\nChannel(s)                     : 6 channels\r\nChannel positions              : Front: L C R, Side: L R, LFE\r\nSampling rate                  : 48.0 kHz\r\nFrame rate                     : 31.250 FPS (1536 SPF)\r\nBit depth                      : 16 bits\r\nCompression mode               : Lossy\r\nStream size                    : 385 MiB (14%)\r\nLanguage                       : Chinese\r\nService kind                   : Complete Main\r\nDefault                        : Yes","last_updated":"2017-08-12T12:04:40.783Z","parsed":{"xt":"urn:btih:c86c2e1acd052f3eb570bd509e4f8ab8c270544a","dn":"Crouching.Tiger.Hidden.Dragon.2000.BluRay.1080p.x265.10bit-z97","tr":["udp://exodus.desync.com:6969","udp://open.demonii.com:1337","udp://tracker.coppersurfer.tk:6969","udp://tracker.leechers-paradise.org:6969","udp://zer0day.ch:1337"],"infoHash":"c86c2e1acd052f3eb570bd509e4f8ab8c270544a","infoHashBuffer":{"type":"Buffer","data":[200,108,46,26,205,5,47,62,181,112,189,80,158,79,138,184,194,112,84,74]},"name":"Crouching.Tiger.Hidden.Dragon.2000.BluRay.1080p.x265.10bit-z97","announce":["udp://exodus.desync.com:6969","udp://open.demonii.com:1337","udp://tracker.coppersurfer.tk:6969","udp://tracker.leechers-paradise.org:6969","udp://zer0day.ch:1337"],"urlList":[]}}